PathFileType	4	(X/Y/Z)	./resultDataOpenSim/trcMotMarkerGrf/sub09/qtm-03-05.trc
DataRate	CameraRate	NumFrames	NumMarkers	Units	OrigDataRate	OrigDataStartFrame	OrigNumFrames
250.000000	250.000000	7	24	m	250.000000	234	466
Frame#	Time	L.Toe.Tip			R.Toe.Tip			L.Ankle.Lat			R.Ankle.Lat			L.Ankle.Med			R.Ankle.Med			L.Heel			R.Heel			L.Knee.Lat			R.Knee.Lat			L.Knee.Med			R.Knee.Med			L.Thigh.Upper			R.Thigh.Upper			L.ASIS			R.ASIS			V.Sacral			L.Acromium			R.Acromium			C7			L.Elbow			R.Elbow			L.Wrist.Lat			R.Wrist.Lat
		X1	Y1	Z1	X2	Y2	Z2	X3	Y3	Z3	X4	Y4	Z4	X5	Y5	Z5	X6	Y6	Z6	X7	Y7	Z7	X8	Y8	Z8	X9	Y9	Z9	X10	Y10	Z10	X11	Y11	Z11	X12	Y12	Z12	X13	Y13	Z13	X14	Y14	Z14	X15	Y15	Z15	X16	Y16	Z16	X17	Y17	Z17	X18	Y18	Z18	X19	Y19	Z19	X20	Y20	Z20	X21	Y21	Z21	X22	Y22	Z22	X23	Y23	Z23	X24	Y24	Z24

234	0.932	0.11163109	-0.010665234	0.00071392402	0.12350182	0.09564962	0.1270158	-0.033125639	0.033438123	-0.046111774	-0.0079244048	0.17128376	0.14031944	-0.012910355	0.052901511	0.050361526	0.030886177	0.18903293	0.048237727	-0.10751787	0.0062963575	-0.0023729634	-0.071602832	0.16881006	0.082351143	0.060535023	0.43910379	-0.097297744	0.26139724	0.51969382	0.18442734	0.056630284	0.43954649	0.028969122	0.26562926	0.50879644	0.058234729	0.062987948	0.8644843	-0.15034855	0.050962958	0.86716901	0.22271775	0.14137974	0.94638153	-0.084093578	0.12891776	0.95388342	0.15522656	-0.026097459	1.0075937	0.030741418	0.13670756	1.4068991	-0.12752879	0.094438621	1.4150839	0.19850677	0.04846537	1.4575919	0.028113343	0.019597519	1.0541478	-0.20137474	-0.053899649	1.0817548	0.27086742	0.2233875	0.8753281	-0.20840607	0.064267153	0.84016286	0.30063077
235	0.936	0.11171271	-0.010697085	0.00065046193	0.14383297	0.094862389	0.12719226	-0.03300169	0.034010989	-0.046033303	0.010635456	0.16633323	0.13976815	-0.012461767	0.053472801	0.050333333	0.048947964	0.18527281	0.047965132	-0.1073485	0.0070991143	-0.0021440913	-0.053577255	0.16210804	0.0818667	0.061124879	0.43968603	-0.097172433	0.2706705	0.52257559	0.184253	0.057395596	0.44015406	0.029035743	0.27471985	0.51170277	0.058131624	0.067127181	0.86493553	-0.14990511	0.05717178	0.86811472	0.22305174	0.14641504	0.94681699	-0.084101598	0.13480864	0.95456987	0.15508365	-0.020396526	1.0082879	0.03150537	0.14280737	1.4074931	-0.12739078	0.10074531	1.4154318	0.19866247	0.054707613	1.4581582	0.028324129	0.026488536	1.0542087	-0.20151663	-0.048585148	1.0826835	0.27107057	0.23303193	0.87816943	-0.20716545	0.068695627	0.84076818	0.30181555
236	0.94	0.11183247	-0.010733381	0.00058301014	0.16430171	0.094128472	0.12732371	-0.033012511	0.034618089	-0.045837435	0.028826372	0.16133164	0.13919047	-0.012093826	0.053997193	0.050402565	0.067033312	0.18149525	0.047649141	-0.10719964	0.0078823576	-0.0018512193	-0.035324064	0.15546509	0.081443471	0.061722161	0.44025322	-0.097064446	0.27977371	0.52532992	0.18412154	0.058415734	0.44073542	0.029001039	0.2836812	0.51443709	0.058055161	0.070643189	0.86535409	-0.14921669	0.063336609	0.86896646	0.22337408	0.15160117	0.94722626	-0.084065231	0.14069516	0.95517858	0.15494974	-0.014864657	1.0089291	0.031901886	0.14890128	1.4080112	-0.12725678	0.10706781	1.4157242	0.19881978	0.060953262	1.4586563	0.028554858	0.033376746	1.0541828	-0.20164138	-0.043255777	1.0835418	0.27127414	0.24263129	0.88097694	-0.20592672	0.07317455	0.84131189	0.30299231
237	0.944	0.11199075	-0.01075364	0.00052221051	0.18492455	0.093401819	0.12737912	-0.033246001	0.035294147	-0.045447335	0.046066955	0.15693064	0.13899142	-0.011812848	0.054498874	0.050588988	0.085192092	0.17775664	0.04733507	-0.10709968	0.0086569726	-0.0014644946	-0.016735286	0.14891091	0.08108583	0.06230931	0.44079797	-0.096964317	0.28872714	0.52797333	0.18404936	0.059522706	0.44128416	0.028968387	0.29250394	0.5170024	0.058008769	0.073842245	0.86578873	-0.14836906	0.06946364	0.86972855	0.22368865	0.15690514	0.94757701	-0.084039659	0.14659371	0.95571775	0.15483235	-0.0093913685	1.0094944	0.032153394	0.15496744	1.4084509	-0.12710583	0.11341524	1.4159612	0.19897425	0.067191556	1.4590679	0.028784859	0.04026428	1.054072	-0.20175377	-0.037917302	1.0843417	0.27148051	0.2521843	0.88375164	-0.20469377	0.077713887	0.8418001	0.30415739
238	0.948	0.11214815	-0.010752282	0.00048574197	0.20566438	0.092658526	0.12735173	-0.033666407	0.036029429	-0.044882046	0.063243266	0.15307755	0.13941858	-0.011601914	0.055017158	0.050858018	0.10345126	0.1740885	0.047052005	-0.10705995	0.0094468303	-0.00096675233	0.0023134	0.14245064	0.080775477	0.062866135	0.44133457	-0.096840497	0.29752751	0.53049687	0.18402844	0.060540645	0.44179795	0.02900366	0.30112894	0.51940236	0.058008758	0.077303804	0.86626624	-0.1475015	0.075556257	0.87040139	0.22399566	0.16230431	0.94783727	-0.084082161	0.15250361	0.95619123	0.15473057	-0.0039000409	1.0099803	0.032410659	0.1610039	1.4088171	-0.12693592	0.11978237	1.4161472	0.19912546	0.073402551	1.4593869	0.028956786	0.047148528	1.0538807	-0.20185016	-0.032590319	1.0850898	0.27169201	0.26168858	0.88649493	-0.2034647	0.082313614	0.84223585	0.30530657
239	0.952	0.11226377	-0.010740628	0.00046770103	0.226424	0.091921462	0.12727	-0.034086975	0.036760209	-0.044282664	0.081659813	0.14900137	0.14000596	-0.011421072	0.055571841	0.05114306	0.12179462	0.17049849	0.04681548	-0.10706355	0.010271386	-0.00034274914	0.021888227	0.13607092	0.080446389	0.063321928	0.44188451	-0.096647823	0.30614919	0.53286659	0.18403151	0.061419273	0.44227492	0.029108793	0.3094596	0.52163684	0.058079234	0.081379541	0.86677627	-0.14671094	0.081616749	0.87098179	0.22429537	0.16777917	0.94797346	-0.084252627	0.15840948	0.95659815	0.15463636	0.0016267079	1.0103858	0.032712986	0.16702653	1.4091151	-0.12676776	0.12615036	1.4162868	0.19927787	0.079567891	1.4596156	0.029000919	0.054025903	1.0536211	-0.20190872	-0.027290568	1.0857849	0.27189183	0.27114174	0.88920508	-0.20223394	0.086965154	0.84261613	0.30643393
240	0.956	0.11233294	-0.010729641	0.00044237552	0.24707935	0.09124495	0.12717468	-0.034337821	0.037428903	-0.043781968	0.10119046	0.14426576	0.14000556	-0.011176361	0.056157865	0.051372694	0.1402008	0.16698366	0.046641659	-0.10707407	0.011119025	0.00042233692	0.041866981	0.12977978	0.08006442	0.063604946	0.44244976	-0.09638662	0.31457966	0.53505704	0.18403431	0.062268988	0.44273705	0.029223695	0.31744325	0.52370096	0.058228126	0.08593774	0.86727811	-0.14602055	0.087653864	0.87147237	0.22459163	0.17330167	0.94795542	-0.084593745	0.16430222	0.9569383	0.15454365	0.007180565	1.0107103	0.033043484	0.17305301	1.4093467	-0.12661701	0.13250197	1.4163791	0.19943532	0.085689384	1.4597616	0.028921735	0.060888046	1.0533032	-0.20189722	-0.022035916	1.086424	0.27203255	0.28054095	0.89187521	-0.20099749	0.091661577	0.84293117	0.3075331
